M48
; DRILL file {KiCad 8.0.4} date 2024-07-27T23:19:15-0700
; FORMAT={-:-/ absolute / inch / decimal}
; #@! TF.CreationDate,2024-07-27T23:19:15-07:00
; #@! TF.GenerationSoftware,Kicad,Pcbnew,8.0.4
; #@! TF.FileFunction,Plated,1,4,PTH
FMAT,2
INCH
; #@! TA.AperFunction,Plated,PTH,ViaDrill
T1C0.0118
%
G90
G05
T1
X3.9209Y-2.1909
X3.9213Y-2.3047
X3.9217Y-2.2181
X3.9217Y-2.248
X3.9217Y-2.278
X3.9228Y-2.4878
X3.9236Y-2.4602
X3.9421Y-2.9102
X3.9421Y-2.9394
X3.9425Y-2.9697
X3.9429Y-2.8559
X3.9429Y-2.8815
X3.9512Y-2.4598
X3.9516Y-2.487
X3.9795Y-2.487
X3.9803Y-2.4594
X3.987Y-2.2315
X3.9878Y-2.2039
X4.0079Y-2.4591
X4.0083Y-2.4862
X4.0154Y-2.2035
X4.0157Y-2.2307
X4.0362Y-2.4854
X4.037Y-2.4579
X4.0425Y-2.3409
X4.0433Y-2.3134
X4.0441Y-2.3976
X4.0449Y-2.3701
X4.0488Y-2.7717
X4.0496Y-2.6998
X4.0646Y-2.4575
X4.065Y-2.4846
X4.0673Y-2.0146
X4.0681Y-1.987
X4.0689Y-1.9303
X4.0709Y-2.313
X4.0713Y-2.3402
X4.0724Y-2.3697
X4.0728Y-2.3969
X4.0917Y-1.9402
X4.0929Y-2.4839
X4.0937Y-2.4563
X4.0957Y-1.9866
X4.0961Y-2.0138
X4.0976Y-2.0748
X4.0984Y-2.0472
X4.0996Y-2.2004
X4.1Y-2.1386
X4.1004Y-2.1728
X4.1008Y-2.111
X4.1016Y-2.2634
X4.1024Y-2.2358
X4.1193Y-1.9409
X4.126Y-2.0469
X4.1264Y-2.074
X4.128Y-2.1724
X4.1283Y-2.1106
X4.1283Y-2.1996
X4.1287Y-2.1378
X4.1299Y-2.2354
X4.1303Y-2.2626
X4.135Y-2.7031
X4.1397Y-2.676
X4.1413Y-2.8614
X4.1449Y-1.9406
X4.1531Y-2.7713
X4.1587Y-2.7988
X4.1657Y-2.8614
X4.172Y-1.9394
X4.1732Y-2.7531
X4.1776Y-2.7776
X4.185Y-2.8024
X4.1925Y-2.8618
X4.1988Y-1.9339
X4.2008Y-2.7524
X4.2028Y-2.7772
X4.2114Y-2.8028
X4.2189Y-2.863
X4.2453Y-1.9201
X4.2453Y-1.948
X4.2484Y-1.8894
X4.2732Y-1.948
X4.274Y-1.9197
X4.276Y-1.8894
X4.3024Y-1.8906
X4.3024Y-1.9201
X4.3028Y-1.9484
X4.3291Y-2.5969
X4.3291Y-2.6323
X4.337Y-1.922
X4.337Y-1.95
X4.3402Y-1.8913
X4.3406Y-2.9264
X4.365Y-1.95
X4.3657Y-1.9217
X4.3661Y-2.1823
X4.3669Y-2.2346
X4.3673Y-2.2071
X4.3677Y-1.8913
X4.3693Y-2.926
X4.3862Y-2.6713
X4.3882Y-2.3547
X4.3921Y-2.1819
X4.3941Y-1.8925
X4.3941Y-1.922
X4.3941Y-2.2339
X4.3945Y-1.9504
X4.3945Y-2.2079
X4.3988Y-2.9256
X4.4185Y-2.1823
X4.4205Y-2.2075
X4.4205Y-2.2335
X4.4264Y-2.9264
X4.4287Y-1.922
X4.4287Y-1.95
X4.4319Y-1.8913
X4.4551Y-2.9264
X4.4567Y-1.95
X4.4575Y-1.9217
X4.4594Y-1.8913
X4.4858Y-1.8925
X4.4858Y-1.922
X4.4862Y-1.9504
X4.4906Y-2.6087
X4.5083Y-2.7106
X4.5689Y-2.613
X4.5909Y-2.6296
X4.5933Y-2.6021
X4.6075Y-2.5579
X4.6079Y-2.5827
X4.6323Y-2.5579
X4.6418Y-2.5837
X4.6516Y-1.9213
X4.6516Y-1.9492
X4.6547Y-1.8906
X4.6575Y-2.6228
X4.6622Y-2.5583
X4.6673Y-2.5831
X4.6795Y-1.9492
X4.6803Y-1.9209
X4.6823Y-1.8906
X4.7087Y-1.8917
X4.7087Y-1.9213
X4.7091Y-1.9496
X4.726Y-2.6661
X4.7264Y-2.8051
X4.7276Y-2.7791
X4.7299Y-2.6327
X4.7421Y-1.9213
X4.7421Y-1.9492
X4.7453Y-1.8906
X4.7524Y-2.7803
X4.7524Y-2.8075
X4.7535Y-2.6638
X4.7602Y-2.6343
X4.7701Y-1.9492
X4.7709Y-1.9209
X4.7709Y-2.472
X4.772Y-2.4402
X4.7728Y-1.8906
X4.778Y-2.7811
X4.7783Y-2.8075
X4.7846Y-2.6673
X4.7886Y-2.6343
X4.7992Y-1.8917
X4.7992Y-1.9213
X4.7996Y-1.9496
X4.8008Y-2.4756
X4.8043Y-2.7819
X4.8043Y-2.8083
X4.8161Y-2.6665
X4.8185Y-2.635
X4.8217Y-2.1846
X4.8224Y-2.237
X4.8228Y-2.2094
X4.8295Y-2.4748
X4.8429Y-1.9445
X4.8433Y-1.9185
X4.8441Y-1.8917
X4.8472Y-2.6673
X4.8476Y-2.1843
X4.8476Y-2.6343
X4.8496Y-2.2362
X4.85Y-2.2102
X4.8579Y-2.4752
X4.8717Y-1.9189
X4.8717Y-1.9472
X4.8724Y-1.8909
X4.874Y-2.1846
X4.876Y-2.2098
X4.876Y-2.2358
X4.8886Y-2.4724
X4.889Y-2.4421
X4.8996Y-1.8917
X4.8996Y-1.9193
X4.9Y-1.9476
X4.9339Y-2.9122
X4.9402Y-1.8917
X4.9535Y-1.9173
X4.9622Y-2.9114
X4.9776Y-1.9287
X4.9917Y-2.9114
X5.0043Y-1.9315
X5.022Y-2.9114
X5.0307Y-1.9319
X5.0496Y-2.913
X5.0551Y-1.9315
X5.0839Y-1.9327
X5.1051Y-2.5398
X5.1055Y-2.5122
X5.1319Y-2.5114
X5.1339Y-2.5398
X5.1646Y-1.9276
X5.1713Y-1.9575
X5.176Y-1.8866
X5.176Y-1.9921
X5.1807Y-2.152
X5.1811Y-2.0965
X5.1815Y-2.1244
X5.1819Y-2.0689
X5.1839Y-2.0276
X5.1988Y-2.8531
X5.1996Y-2.8287
X5.2004Y-2.7772
X5.2004Y-2.8031
X5.2008Y-1.8531
X5.2173Y-2.2157
X5.2181Y-2.1882
X5.2189Y-2.276
X5.2197Y-2.2484
X5.2201Y-2.3866
X5.2209Y-2.3295
X5.2209Y-2.3591
X5.2217Y-2.302
X5.2248Y-2.8276
X5.2252Y-2.8535
X5.2256Y-2.7772
X5.226Y-2.8028
X5.2315Y-1.8433
X5.2335Y-1.9134
X5.2346Y-1.9504
X5.2354Y-1.9846
X5.2358Y-1.8748
X5.2394Y-2.0165
X5.2394Y-2.1193
X5.2398Y-2.0933
X5.2413Y-2.0642
X5.2512Y-2.802
X5.2512Y-2.8276
X5.2516Y-2.778
X5.252Y-2.8531
X5.2709Y-2.1461
X5.3189Y-2.8512
X5.3197Y-2.8268
X5.3205Y-2.7752
X5.3205Y-2.8012
X5.3449Y-2.8256
X5.3453Y-2.8516
X5.3457Y-2.7752
X5.3461Y-2.8008
X5.3713Y-2.8
X5.3713Y-2.8256
X5.3717Y-2.776
X5.372Y-2.8512
X5.3843Y-1.7882
X5.3854Y-1.8146
X5.3862Y-1.8402
X5.3866Y-1.8697
X5.4098Y-1.8717
X5.413Y-1.8138
X5.413Y-1.8421
X5.4134Y-1.785
X5.4283Y-2.0484
X5.4283Y-2.0764
X5.4287Y-2.1083
X5.4406Y-1.7866
X5.4406Y-1.8638
X5.4417Y-1.8138
X5.4429Y-1.839
X5.4543Y-2.5189
X5.461Y-2.0799
X5.4614Y-2.1094
X5.4917Y-2.1146
X5.4976Y-2.0854
X5.4988Y-2.6079
X5.4992Y-1.7791
X5.5094Y-1.8071
X5.5169Y-2.7094
X5.522Y-2.1173
X5.5283Y-2.0894
X5.5319Y-1.8236
X5.5323Y-2.735
X5.5323Y-2.765
X5.5327Y-2.8531
X5.5331Y-2.8236
X5.5335Y-2.7965
X5.5472Y-2.1177
X5.5484Y-2.5528
X5.5579Y-2.735
X5.5587Y-2.0894
X5.5594Y-2.7677
X5.5594Y-2.8232
X5.5602Y-2.8531
X5.5606Y-2.7957
X5.5614Y-1.8268
X5.5665Y-2.5697
X5.5728Y-2.1181
X5.5815Y-2.4941
X5.5831Y-2.735
X5.5835Y-2.5173
X5.5854Y-2.552
X5.5858Y-2.0894
X5.5902Y-1.8283
X5.602Y-2.1177
X5.6091Y-2.5173
X5.6094Y-2.7346
X5.6126Y-2.0886
X5.6132Y-2.4901
X5.622Y-1.8295
X5.6287Y-2.1213
X5.6295Y-2.6835
X5.6295Y-2.713
X5.6321Y-2.561
X5.6358Y-2.5165
X5.6413Y-2.4933
X5.6417Y-2.0898
X5.652Y-1.8272
X5.6614Y-2.122
X5.6724Y-2.0917
X5.689Y-2.122
X5.6902Y-1.8165
X5.6961Y-2.8728
X5.702Y-2.0906
X5.7031Y-2.798
X5.7079Y-2.5551
X5.7165Y-2.1236
X5.7173Y-2.7063
X5.7177Y-2.6783
X5.7209Y-1.8307
X5.7236Y-2.8161
X5.7283Y-2.8752
X5.7319Y-2.5555
X5.7319Y-2.5819
X5.7323Y-2.0917
X5.7374Y-2.765
X5.7441Y-2.1228
X5.7524Y-1.8315
X5.7535Y-2.7819
X5.7587Y-2.5559
X5.7594Y-2.3917
X5.7598Y-2.3665
X5.763Y-2.0917
X5.7705Y-2.1201
X5.774Y-2.9378
X5.7744Y-2.9638
X5.7823Y-2.5551
X5.7831Y-1.8299
X5.7843Y-2.3917
X5.7846Y-2.3673
X5.7902Y-2.0917
X5.7902Y-2.7669
X5.7909Y-2.7118
X5.7909Y-2.7394
X5.7941Y-2.5827
X5.7953Y-2.1319
X5.8004Y-2.939
X5.8004Y-2.9642
X5.8067Y-2.5543
X5.811Y-2.1118
X5.815Y-1.8295
X5.8238Y-2.7809
X5.8374Y-2.7638
X5.8441Y-1.8248
X5.8563Y-2.678
X5.8563Y-2.702
X5.8906Y-2.0181
X5.8909Y-1.8335
X5.8909Y-1.9921
X5.8913Y-1.8075
X5.8925Y-1.9665
X5.8929Y-1.7819
X5.8961Y-2.937
X5.9189Y-1.9933
X5.9193Y-1.8087
X5.9193Y-1.9673
X5.9197Y-1.7827
X5.9201Y-2.0201
X5.9205Y-1.8354
X5.9217Y-2.9378
X5.937Y-2.5882
X5.9374Y-2.5303
X5.9374Y-2.5606
X5.9382Y-2.6142
X5.9465Y-1.9925
X5.9469Y-1.8079
X5.9469Y-1.9677
X5.9469Y-2.937
X5.9472Y-1.7831
X5.9484Y-2.0185
X5.9488Y-1.8339
X5.9634Y-2.0953
X5.9634Y-2.5602
X5.9638Y-2.5303
X5.9638Y-2.5862
X5.965Y-2.613
X5.9736Y-2.937
X5.9776Y-2.2957
X5.978Y-2.2634
X5.978Y-2.3224
X5.9787Y-2.0177
X5.9791Y-1.9917
X5.9807Y-1.9661
X5.9906Y-2.5618
X5.9917Y-2.5311
X5.9929Y-2.6126
X5.9941Y-2.5874
X5.9992Y-2.937
X6.0031Y-2.2957
X6.0039Y-2.322
X6.0043Y-2.263
X6.0071Y-1.9929
X6.0075Y-1.9669
X6.0083Y-2.0197
X6.0185Y-2.5602
X6.0193Y-2.5307
X6.0197Y-2.5874
X6.0197Y-2.6138
X6.0291Y-2.2925
X6.0295Y-2.3217
X6.0299Y-2.2634
X6.0346Y-1.9921
X6.035Y-1.9673
X6.0366Y-2.0181
X6.0563Y-2.265
X6.0563Y-2.3201
X6.0567Y-2.2925
M30
